<svg width="43" height="23" viewBox="0 0 43 23" fill="none" xmlns="http://www.w3.org/2000/svg">
<g clip-path="url(#clip0_2269_5212)">
<path d="M6.4328 2.69645C1.22468 3.02097 0.0257586 5.56161 0.0214844 6.85969C0.201001 11.2535 6.11651 11.0806 6.11651 11.0806C6.11651 11.0806 4.93469 13.3309 5.55018 15.4744C6.47127 18.0919 9.54016 18.5829 9.54016 18.5829C9.54016 18.5829 9.27943 20.0838 10.2133 21.1898C11.7221 22.8145 14.3187 22.7761 15.9301 22.4473C17.5415 22.1206 18.7169 20.7948 18.7169 20.7948C21.5699 21.6851 25.8677 21.2944 30.7766 20.3593C31.1036 21.2602 31.7746 21.7897 32.4948 22.0971C33.854 22.6288 36.1236 22.9874 38.0321 22.0694C39.9426 21.1513 40.6137 18.1026 40.6137 18.1026C41.1886 15.7989 41.242 13.4312 40.4983 11.4307C40.4983 11.4307 42.3875 9.36404 42.5349 6.05906C42.5349 3.70203 39.9426 2.65161 38.3825 4.32118C36.8225 5.99074 36.9165 7.33793 35.8693 7.77987C26.6883 5.29474 23.925 7.93999 19.8431 7.52581C19.5354 4.00734 17.7253 2.31215 15.3403 1.94707C13.84 0.377845 8.09975 -0.0769083 6.43494 2.69645H6.4328Z" fill="#FCFCEA"/>
<path d="M14.4452 4.18387C10.4445 0.633379 6.87981 4.58312 6.87981 4.58312C6.87981 4.58312 1.7764 4.19668 2.02858 6.88037C2.3406 10.2387 8.61942 8.82322 8.67925 9.04312C7.1213 15.4396 12.7611 17.2991 12.7611 17.2991C12.7611 17.2991 13.1522 17.534 12.9813 18.42C11.8935 19.5089 13.0411 20.1728 13.0411 20.1728H15.2316C15.2316 20.1728 16.1228 19.923 15.8236 18.1894C22.8846 20.4141 33.8672 17.0045 33.8672 17.0045C33.8672 17.0045 34.3288 17.5105 34.192 18.3666C33.1555 19.2206 33.895 20.1728 33.895 20.1728H36.4125C37.3656 19.6498 36.9489 18.388 36.9168 18.2492C39.3553 14.8268 38.7932 12.615 37.6349 11.2635C37.5601 11.176 38.8467 10.2494 39.616 8.91715C40.5713 7.26253 41.0393 5.5951 40.0904 5.56948C39.3574 5.54813 39.1181 6.89105 38.4662 8.03967C37.7354 9.32707 36.5899 10.3305 36.4809 10.2579C35.626 9.68789 34.8289 9.44663 34.784 9.43169C30.6744 7.87528 28.0094 8.7186 23.4082 9.34202C18.807 9.96544 16.5524 8.82748 16.5951 8.66096C16.937 8.38554 17.9757 5.86838 14.4452 4.18601V4.18387Z" fill="#2D4A5D"/>
<path d="M16.9404 13.6668C17.0579 13.7116 17.1434 13.7885 17.1947 13.8974C17.246 14.0062 17.246 14.1151 17.1947 14.2261C17.0109 14.6232 16.7929 14.9307 16.5386 15.1506C16.2843 15.3705 16.0385 15.4794 15.7992 15.4794C15.4807 15.4794 15.1858 15.2744 14.9123 14.8624C14.6387 14.4503 14.502 13.9486 14.502 13.3551C14.502 12.8811 14.5575 12.4029 14.6686 11.9161C14.6964 11.7922 14.7648 11.694 14.8738 11.6236C14.9828 11.5531 15.1003 11.5254 15.2286 11.5382L15.3055 11.5489C15.4188 11.5617 15.5107 11.6172 15.5769 11.7111C15.6453 11.8072 15.6667 11.9097 15.641 12.025C15.5363 12.5267 15.485 12.9686 15.485 13.3572C15.485 13.5195 15.4978 13.6732 15.5235 13.8205C15.5491 13.9678 15.5833 14.0874 15.6239 14.1834C15.6645 14.2795 15.7073 14.3542 15.75 14.4119C15.7928 14.4695 15.8334 14.4973 15.8718 14.4973C15.9231 14.4973 15.9915 14.4482 16.0749 14.35C16.1582 14.2518 16.2458 14.1087 16.3399 13.923C16.3954 13.812 16.4809 13.7308 16.5963 13.6796C16.7117 13.6283 16.825 13.6241 16.9361 13.6689L16.9404 13.6668Z" fill="#BF5B5B" stroke="#FEFCF9" stroke-width="0.124667" stroke-miterlimit="10"/>
<path d="M23.4433 15.5568C23.5608 15.5504 23.6677 15.5782 23.7639 15.6401C23.86 15.702 23.9199 15.7896 23.9413 15.8984C23.9626 16.0159 23.9391 16.1247 23.8707 16.223C23.8023 16.3212 23.7126 16.3767 23.5993 16.3916C23.4433 16.4087 23.3065 16.4172 23.189 16.4172C22.8364 16.4172 22.5692 16.3681 22.3897 16.2678C22.2102 16.1674 22.0948 16.0095 22.0478 15.796C22.0157 15.6572 21.9858 15.5632 21.9537 15.512C21.9217 15.4608 21.8854 15.4351 21.8405 15.4351C21.7999 15.4351 21.7187 15.4714 21.6011 15.5419C21.4836 15.6123 21.1331 15.8408 20.5497 16.2272C20.4492 16.2955 20.3381 16.319 20.2184 16.2977C20.0987 16.2763 20.0004 16.2144 19.9278 16.1141L19.9171 16.1034C19.8487 16.0031 19.8252 15.8963 19.8487 15.7789C19.8722 15.6636 19.9342 15.5718 20.0346 15.5077L22.223 14.0986C22.223 14.0986 22.2273 14.0986 22.2273 14.0944C22.2273 14.0901 22.2273 14.0901 22.223 14.0901H20.492C20.3787 14.0901 20.2804 14.0495 20.1992 13.9684C20.118 13.8873 20.0774 13.7891 20.0774 13.6759C20.0774 13.5628 20.118 13.4645 20.1992 13.3834C20.2804 13.3023 20.3787 13.2617 20.492 13.2617H23.1099C23.2317 13.2617 23.3343 13.3044 23.4219 13.392C23.5074 13.4774 23.5523 13.582 23.5523 13.7037V13.7912C23.5523 14.0816 23.4305 14.3079 23.1847 14.4701L22.5991 14.8544L22.6034 14.8587C22.6526 14.8587 22.7039 14.895 22.7594 14.9654C22.815 15.0359 22.8535 15.1256 22.8791 15.2323C22.9133 15.3818 22.9539 15.4736 23.0009 15.512C23.0479 15.5504 23.1441 15.5696 23.2937 15.5696C23.36 15.5696 23.4091 15.5696 23.4433 15.5654V15.5568Z" fill="#B75859" stroke="#FEFCF9" stroke-width="0.124667" stroke-miterlimit="10"/>
<path d="M35.0836 14.4056L35.1926 14.5444C35.2588 14.6341 35.2823 14.7344 35.2674 14.8454C35.2524 14.9565 35.199 15.0461 35.1092 15.1145L34.9896 15.202C34.9383 15.2426 34.8784 15.2596 34.8143 15.2532C34.7481 15.2468 34.6946 15.2148 34.654 15.1593C34.6412 15.1422 34.6262 15.1401 34.6134 15.155C34.3912 15.3771 34.1433 15.4859 33.8676 15.4859C33.5919 15.4859 33.3739 15.4048 33.1987 15.2404C33.0213 15.076 32.9337 14.8647 32.9337 14.6063C32.9337 14.348 33.0256 14.1494 33.2093 13.9786C33.3931 13.81 33.6304 13.7246 33.9189 13.7246C34.0086 13.7246 34.0941 13.7288 34.1732 13.7395C34.2116 13.7459 34.2309 13.731 34.2309 13.6925V13.5175C34.2309 13.3445 34.186 13.1844 34.0941 13.035C34.0022 12.8855 33.8761 12.7638 33.7137 12.6677C33.6795 12.6464 33.6539 12.6549 33.641 12.6934C33.2948 13.5709 32.9401 14.2284 32.5746 14.6704C32.2092 15.1102 31.8801 15.3301 31.5873 15.3301C31.2753 15.3301 31.0252 15.202 30.835 14.9437C30.6448 14.6853 30.5508 14.3138 30.5508 13.8271C30.5508 13.2079 30.7709 12.6891 31.2154 12.2685C31.2432 12.2408 31.2518 12.2109 31.2411 12.1746C31.2133 12.07 31.1727 11.912 31.1171 11.6985C31.0893 11.5874 31.1064 11.4828 31.1684 11.3846C31.2304 11.2864 31.318 11.2224 31.4334 11.1946C31.5467 11.1711 31.6535 11.1903 31.754 11.2522C31.8544 11.3142 31.9185 11.4017 31.9463 11.517C31.9506 11.5383 31.9591 11.5704 31.972 11.6152C31.9848 11.66 31.9933 11.6921 31.9976 11.7134C32.004 11.7518 32.0275 11.7625 32.066 11.7497C32.3502 11.6494 32.658 11.6003 32.9892 11.6003H33.0362C33.0768 11.6003 33.1046 11.5832 33.1132 11.549C33.1196 11.5277 33.1303 11.4999 33.141 11.4615C33.1538 11.423 33.1623 11.3953 33.1687 11.3782C33.2072 11.2565 33.2799 11.1647 33.3867 11.0985C33.4936 11.0323 33.609 11.011 33.7351 11.0302H33.7458C33.8633 11.0516 33.9531 11.1113 34.0129 11.2117C34.0727 11.312 34.0856 11.4166 34.0514 11.5277C34.0236 11.6173 34.0022 11.6835 33.9894 11.7241C33.9766 11.7625 33.9851 11.7903 34.0214 11.8073C34.3783 11.9632 34.6583 12.1916 34.8613 12.4927C35.0644 12.7958 35.1669 13.1353 35.1669 13.5153C35.1669 13.8057 35.1349 14.0683 35.0729 14.3032C35.0622 14.3416 35.0686 14.3736 35.0879 14.4014L35.0836 14.4056ZM31.583 14.4014C31.6386 14.4014 31.7219 14.333 31.8373 14.1985C31.8587 14.1751 31.8608 14.143 31.848 14.1046C31.8031 13.9872 31.7134 13.7246 31.5787 13.3168C31.5745 13.3061 31.568 13.3018 31.5574 13.304C31.5467 13.304 31.5381 13.3125 31.5317 13.3211C31.4633 13.479 31.427 13.6498 31.427 13.8292C31.427 13.9466 31.4355 14.0512 31.4526 14.1409C31.4697 14.2306 31.489 14.2967 31.5125 14.3373C31.5339 14.3779 31.5574 14.3992 31.583 14.3992V14.4014ZM32.7285 12.5525C32.7349 12.5396 32.7349 12.5268 32.7285 12.5162C32.7221 12.5055 32.7114 12.5034 32.6964 12.5055C32.5383 12.529 32.4037 12.5653 32.2925 12.6101C32.2583 12.6208 32.2476 12.6485 32.2605 12.6934C32.3118 12.8727 32.3609 13.0328 32.4058 13.1695C32.4101 13.1801 32.4165 13.1844 32.4272 13.1844C32.4378 13.1844 32.4464 13.1801 32.4528 13.1695C32.549 12.9666 32.6409 12.7596 32.7285 12.5525ZM34.1133 14.5828C34.1347 14.5444 34.1283 14.5145 34.0984 14.4889C34.0492 14.4483 33.9894 14.427 33.9167 14.427C33.8612 14.427 33.812 14.4441 33.7714 14.4804C33.7308 14.5167 33.7094 14.5594 33.7094 14.6063C33.7094 14.6512 33.7244 14.6875 33.7543 14.7173C33.7842 14.7472 33.8206 14.7622 33.8654 14.7622C33.9766 14.7622 34.0599 14.7024 34.1133 14.5807V14.5828Z" fill="#BF5B5B" stroke="#FEFCF9" stroke-width="0.124667" stroke-miterlimit="10"/>
<path d="M18.7606 12.7938C18.6818 12.5 18.3795 12.3256 18.0853 12.4043C17.7912 12.483 17.6166 12.7851 17.6954 13.0789L17.759 13.3161C17.8379 13.6099 18.1402 13.7843 18.4343 13.7056C18.7285 13.6269 18.903 13.3248 18.8242 13.031L18.7606 12.7938Z" fill="#BF5B5B" stroke="#FEFCF9" stroke-width="0.124667" stroke-miterlimit="10"/>
<path d="M21.774 11.6835C21.4695 11.6835 21.2227 11.9301 21.2227 12.2343C21.2227 12.5385 21.4695 12.7852 21.774 12.7852H22.0198C22.3243 12.7852 22.5712 12.5385 22.5712 12.2343C22.5712 11.9301 22.3243 11.6835 22.0198 11.6835H21.774Z" fill="#BF5B5B" stroke="#FEFCF9" stroke-width="0.124667" stroke-miterlimit="10"/>
<path d="M27.5146 14.2605C27.6322 14.3054 27.7176 14.3822 27.7689 14.4911C27.8202 14.6 27.8202 14.7089 27.7689 14.8199C27.5851 15.217 27.3672 15.5244 27.1128 15.7443C26.8585 15.9642 26.6128 16.0731 26.3734 16.0731C26.055 16.0731 25.76 15.8682 25.4865 15.4561C25.2129 15.0462 25.0762 14.5423 25.0762 13.9488C25.0762 13.4748 25.1317 12.9966 25.2429 12.5098C25.2706 12.386 25.339 12.2878 25.448 12.2173C25.557 12.1469 25.6746 12.1191 25.8028 12.1319L25.8797 12.1426C25.993 12.1554 26.0849 12.2109 26.1511 12.3049C26.2195 12.4009 26.2409 12.5034 26.2152 12.6187C26.1105 13.1204 26.0592 13.5624 26.0592 13.9509C26.0592 14.1132 26.0721 14.2669 26.0977 14.4142C26.1234 14.5616 26.1575 14.6811 26.1982 14.7772C26.2388 14.8733 26.2815 14.948 26.3242 15.0056C26.367 15.0633 26.4076 15.091 26.4461 15.091C26.4973 15.091 26.5657 15.0419 26.6491 14.9437C26.7324 14.8455 26.8201 14.7025 26.9141 14.5167C26.9696 14.4057 27.0551 14.3246 27.1705 14.2733C27.2859 14.2221 27.3992 14.2178 27.5103 14.2627L27.5146 14.2605Z" fill="#BF5B5B" stroke="#FEFCF9" stroke-width="0.124667" stroke-miterlimit="10"/>
<path d="M29.3329 13.3954C29.2541 13.1015 28.9517 12.9271 28.6576 13.0059C28.3634 13.0846 28.1889 13.3866 28.2677 13.6805L28.3313 13.9177C28.4101 14.2115 28.7125 14.3859 29.0066 14.3071C29.3007 14.2284 29.4753 13.9264 29.3965 13.6325L29.3329 13.3954Z" fill="#BF5B5B" stroke="#FEFCF9" stroke-width="0.124667" stroke-miterlimit="10"/>
<path d="M12.6291 18.3495C12.6291 18.3495 11.6055 18.7231 11.6055 19.3038C11.6055 20.3713 12.8193 20.3649 12.8193 20.3649H15.5655C16.4375 19.97 16.2772 18.7893 16.1767 18.7146C16.0934 18.6249 12.736 17.6813 12.6569 17.7453C12.6313 17.7667 12.627 18.3516 12.627 18.3516L12.6291 18.3495Z" fill="#E9C052" stroke="#AE7F46" stroke-width="0.124667" stroke-miterlimit="10"/>
<path d="M12.9789 18.6443L12.4672 18.4984C12.4627 18.4971 12.4579 18.4998 12.4566 18.5043L12.4561 18.5064C12.4548 18.5109 12.4574 18.5156 12.4619 18.5169L12.9736 18.6628C12.9782 18.6641 12.9829 18.6615 12.9842 18.657L12.9848 18.6549C12.9861 18.6504 12.9834 18.6456 12.9789 18.6443Z" fill="#464546" stroke="#464646" stroke-width="0.124667" stroke-miterlimit="10"/>
<path d="M12.5297 18.8982L12.018 18.7523C12.0134 18.751 12.0087 18.7537 12.0074 18.7582L12.0068 18.7603C12.0055 18.7648 12.0082 18.7695 12.0127 18.7708L12.5244 18.9166C12.529 18.9179 12.5337 18.9153 12.535 18.9108L12.5356 18.9087C12.5369 18.9042 12.5343 18.8995 12.5297 18.8982Z" fill="#464546" stroke="#464646" stroke-width="0.124667" stroke-miterlimit="10"/>
<path d="M7.64382 12.5628C7.61604 12.5735 7.26128 12.7208 7.17793 12.7763C7.07108 12.8446 7.00269 12.9108 6.99414 13.0453C6.99414 13.2311 7.00696 15.1718 7.0091 15.1995C7.00696 15.3767 7.08604 15.413 7.17793 15.4429C7.20785 15.4515 9.89206 16.1218 9.9177 16.1197C10.1058 16.1368 10.1699 16.1218 10.3067 16.0749C10.3537 16.0535 10.7448 15.8742 10.7448 15.8742C10.8324 15.8229 10.8858 15.7375 10.8815 15.5966L10.8751 13.4147C10.858 13.2951 10.7982 13.2545 10.6144 13.1969C10.6144 13.1969 7.96225 12.535 7.93019 12.5329C7.85539 12.5244 7.75068 12.5201 7.64596 12.5628H7.64382Z" fill="#E8D091" stroke="#AE7F46" stroke-width="0.124667" stroke-miterlimit="10"/>
<path d="M7.31495 12.957L9.92649 13.621C9.9671 13.6296 10.0141 13.6253 10.0633 13.6103L10.5441 13.3926C10.6339 13.4182 10.6745 13.4524 10.683 13.4929L10.1872 13.7214C10.1338 13.7512 10.106 13.8004 10.1081 13.8729L10.1252 15.8926C10.1231 15.9353 10.1039 15.9588 10.0718 15.9588C10.0333 15.9652 9.99702 15.9652 9.96069 15.9588C9.9329 15.9524 9.91581 15.9332 9.91581 15.8948L9.90085 13.8495C9.90085 13.8132 9.87093 13.7726 9.8346 13.7619L7.15039 13.1022C7.1739 13.0403 7.2487 12.9784 7.31708 12.957H7.31495Z" fill="#FCFCEA"/>
<path d="M7.99836 13.0216C8.25094 13.0216 8.4557 12.9136 8.4557 12.7803C8.4557 12.6471 8.25094 12.5391 7.99836 12.5391C7.74577 12.5391 7.54102 12.6471 7.54102 12.7803C7.54102 12.9136 7.74577 13.0216 7.99836 13.0216Z" fill="#464546"/>
<path d="M8.57227 13.8567C8.59791 13.846 8.62356 13.8353 8.6492 13.8289C8.99328 13.7307 9.37154 13.9976 9.49336 14.4246C9.61517 14.8516 9.43352 15.2765 9.08731 15.3747C9.07876 15.3768 9.07021 15.3789 9.0638 15.3811" fill="#464546"/>
<path d="M8.38086 13.9009L8.64966 13.8242" stroke="#285B2F" stroke-width="0.0311667" stroke-miterlimit="10"/>
<path d="M8.81836 15.4418L9.08716 15.3672" stroke="#285B2F" stroke-width="0.0311667" stroke-miterlimit="10"/>
<path d="M33.7581 18.3495C33.7581 18.3495 32.7344 18.7231 32.7344 19.3038C32.7344 20.3713 33.9483 20.3649 33.9483 20.3649H36.6944C37.5664 19.97 37.4061 18.7893 37.3056 18.7146C37.2223 18.6249 33.8649 17.6813 33.7858 17.7453C33.7602 17.7667 33.7559 18.3516 33.7559 18.3516L33.7581 18.3495Z" fill="#E9C052" stroke="#AE7F46" stroke-width="0.124667" stroke-miterlimit="10"/>
<path d="M34.1078 18.6443L33.5961 18.4984C33.5916 18.4971 33.5868 18.4998 33.5855 18.5043L33.585 18.5064C33.5837 18.5109 33.5863 18.5156 33.5908 18.5169L34.1025 18.6628C34.1071 18.6641 34.1118 18.6615 34.1131 18.657L34.1137 18.6549C34.115 18.6504 34.1124 18.6456 34.1078 18.6443Z" fill="#464546" stroke="#464646" stroke-width="0.124667" stroke-miterlimit="10"/>
<path d="M33.6606 18.8982L33.1488 18.7523C33.1443 18.751 33.1396 18.7537 33.1383 18.7582L33.1377 18.7603C33.1364 18.7648 33.139 18.7695 33.1436 18.7708L33.6553 18.9166C33.6598 18.9179 33.6646 18.9153 33.6659 18.9108L33.6665 18.9087C33.6677 18.9042 33.6651 18.8995 33.6606 18.8982Z" fill="#464546" stroke="#464646" stroke-width="0.124667" stroke-miterlimit="10"/>
<path d="M8.82296 15.4459C9.16818 15.3482 9.34996 14.9232 9.22897 14.4966C9.10799 14.07 8.73006 13.8035 8.38484 13.9012C8.03962 13.9989 7.85784 14.4239 7.97883 14.8505C8.09981 15.277 8.47774 15.5436 8.82296 15.4459Z" fill="#2D4A5D" stroke="#FCFCEA" stroke-width="0.124667" stroke-miterlimit="10"/>
<path d="M8.40182 10.249C8.4061 10.2383 7.50638 12.7918 8.95106 13.127C10.1585 13.4088 12.3234 12.4438 14.2831 10.518C15.7919 9.03417 16.8861 8.85696 16.7836 8.87191" stroke="#AE7F46" stroke-width="0.124667" stroke-miterlimit="10"/>
</g>
<defs>
<clipPath id="clip0_2269_5212">
<rect width="42.5113" height="21.9413" fill="white" transform="translate(0.0214844 0.691406)"/>
</clipPath>
</defs>
</svg>
