<?xml version="1.0" encoding="utf-8"?>
<!-- Generator: Adobe Illustrator 26.4.1, SVG Export Plug-In . SVG Version: 6.00 Build 0)  -->
<svg version="1.1" id="レイヤー_1" xmlns="http://www.w3.org/2000/svg" xmlns:xlink="http://www.w3.org/1999/xlink" x="0px"
	 y="0px" viewBox="0 0 499 118" style="enable-background:new 0 0 499 118;" xml:space="preserve">
<style type="text/css">
	.st0{fill:#D26060;}
	.st1{fill:#FFFFFF;}
</style>
<path class="st0" d="M499,59c0-32.6-23.4-59-52.3-59H0v118h446.7C475.6,118,499,91.6,499,59L499,59z"/>
<path class="st1" d="M76.2,66.8c0.1,0.2,0.2,0.4,0.3,0.6c0.1,0.3,0.4,0.4,0.7,0.4c0.1,0,0.3,0,0.5-0.1c0.4-0.2,0.5-0.5,0.5-0.8
	c0-0.2,0-0.3-0.1-0.5c-0.2-0.4-0.3-0.7-0.4-0.9c1.6-1.7,3.2-4.5,3.9-7.4c2.7,0.4,4.2,2,4.2,4.4c0,2.8-2.4,5-6.6,5.2
	c-0.5,0-0.8,0.3-0.8,0.9c0,0,0,0,0,0c0,0.5,0.4,0.9,0.9,0.9c0,0,0,0,0,0c5-0.2,8.4-3.1,8.4-6.9c0-3.1-1.9-5.4-5.7-6
	c0.1-0.3,0.1-0.6,0.2-0.9c0,0,0-0.1,0-0.1c0-0.4-0.3-0.7-0.7-0.7c-0.1,0-0.1,0-0.2,0c-0.4,0-0.7,0.2-0.8,0.6c0,0.3-0.1,0.6-0.2,1
	c-1.7,0-3,0.2-4,0.5c0-0.2,0-0.4,0-0.6c0-0.9,0-1.8,0-2.6c3.2-0.1,6.2-0.3,8.8-0.7c0.5-0.1,0.8-0.4,0.8-0.8c0,0,0-0.1,0-0.2
	c-0.1-0.5-0.4-0.8-0.8-0.8c0,0-0.1,0-0.2,0c-2.6,0.4-5.4,0.6-8.4,0.7c0-0.8,0.1-1.5,0.2-2.2c0,0,0-0.1,0-0.1c0-0.4-0.2-0.7-0.8-0.7
	c0,0-0.1,0-0.1,0c-0.5,0-0.8,0.3-0.9,0.7c-0.1,0.7-0.1,1.6-0.1,2.4c-1.1,0-2.1,0-3.1,0c-0.4,0-0.8,0-1.2,0c-0.5,0-0.8,0.4-0.8,0.8
	c0,0.6,0.3,0.9,0.9,0.9c1.4,0,2.8,0,4.1,0c0,0.9,0,1.8,0,2.8c0,0.4,0,0.7,0,1c-3.3,1.4-5.6,4.2-5.6,7.3c0,2.3,1.4,3.6,3.2,3.6
	C73.3,68.4,74.6,68,76.2,66.8z M75.6,65c-1.3,1.1-2.4,1.5-3.3,1.5c-1,0-1.6-0.6-1.6-1.9c0-1.9,1.4-4.1,3.9-5.5
	C74.7,61.3,75,63.4,75.6,65z M77,63.6c-0.4-1.5-0.7-3.3-0.7-5.3c0.7-0.3,1.9-0.6,3.6-0.6C79.3,60.1,78.2,62.2,77,63.6z M106,52.2
	c-0.1,0-0.3-0.1-0.4-0.1c-0.4,0-0.7,0.2-0.9,0.5c-0.1,0.2-0.1,0.4-0.1,0.5c0,0.3,0.1,0.6,0.4,0.7c1.8,0.7,3.5,1.6,4.9,2.6
	c0.2,0.1,0.4,0.2,0.6,0.2c0.3,0,0.6-0.2,0.8-0.4c0.1-0.2,0.1-0.4,0.1-0.5c0-0.3-0.1-0.7-0.5-0.9C109.7,53.8,107.8,52.8,106,52.2z
	 M98,54.7c1.4-0.1,2.8-0.2,4-0.4c0.6-0.1,0.8-0.4,0.8-0.9c0,0,0-0.1,0-0.1c-0.1-0.5-0.4-0.8-0.8-0.8c-0.1,0-0.1,0-0.2,0
	c-1,0.1-2.1,0.2-3.2,0.3c0.3-1,0.5-2,0.7-3c0-0.1,0-0.2,0-0.3c0-0.5-0.3-0.7-0.8-0.8c-0.1,0-0.2,0-0.2,0c-0.5,0-0.8,0.3-0.9,0.8
	c-0.2,1.2-0.5,2.4-0.8,3.5c-1,0-2.1,0.1-3.1,0.1c-0.4,0-0.7,0-1,0c-0.5,0-0.9,0.4-0.9,0.9c0,0.6,0.3,0.9,0.8,0.9c0.3,0,0.6,0,0.9,0
	c0.9,0,1.8,0,2.7-0.1c-1,3.2-2.5,6.5-4.1,9.2c-0.1,0.2-0.2,0.5-0.2,0.7c0,0.3,0.1,0.6,0.4,0.8c0.2,0.1,0.4,0.2,0.7,0.2
	c0.3,0,0.6-0.2,0.9-0.6C95.4,62.1,96.9,58.4,98,54.7z M106.9,62.7c-0.2-1.7-0.3-3.3-0.3-5.3c0-0.7-0.4-1-1-1c-0.5,0-0.9,0.3-0.9,1
	c0,1.5,0.1,3.4,0.3,4.7c-1-0.3-1.9-0.4-2.9-0.4c-2.9,0-4.9,1.6-4.9,3.9c0,2.2,1.9,3.7,4.9,3.7c3.2,0,4.8-1.2,4.9-3.7
	c0-0.2,0-0.5,0-0.8c1,0.6,2.1,1.5,3,2.4c0.2,0.2,0.5,0.3,0.7,0.3c0.2,0,0.5-0.1,0.7-0.3c0.2-0.2,0.3-0.4,0.3-0.7
	c0-0.3-0.1-0.5-0.4-0.8C110.1,64.5,108.5,63.4,106.9,62.7z M105.2,63.9c0,0.5,0,0.8,0,1.2c0,1.7-1.1,2.4-3.1,2.4
	c-1.9,0-3.1-0.7-3.1-2c0-1.3,1.2-2.2,3.1-2.2C103.2,63.3,104.2,63.5,105.2,63.9z M119.9,54.8c-1.1,4.3-2.7,8.7-4.4,12.2
	c-0.1,0.2-0.1,0.4-0.1,0.6c0,0.4,0.2,0.7,0.5,0.8c0.2,0.1,0.4,0.1,0.5,0.1c0.4,0,0.7-0.2,0.9-0.6c1.8-3.8,3.4-8.7,4.6-13.3
	c1.9-0.1,3.7-0.4,5.2-0.6c0.4-0.1,0.7-0.4,0.7-0.8c0-0.1,0-0.2,0-0.2c-0.1-0.5-0.4-0.7-0.8-0.7c-0.1,0-0.2,0-0.2,0
	c-1.2,0.2-2.8,0.4-4.3,0.6c0.2-1,0.4-2,0.6-2.9c0-0.1,0-0.1,0-0.2c0-0.4-0.3-0.8-0.8-0.8c-0.1,0-0.1,0-0.2,0c-0.5,0-0.8,0.2-0.9,0.7
	c-0.2,1.1-0.4,2.2-0.7,3.3c-1.5,0.1-3.1,0.1-4.3,0.1c-0.6,0-0.9,0.4-0.9,0.9c0,0,0,0,0,0.1c0,0.6,0.3,0.9,0.8,0.9c0.2,0,0.3,0,0.5,0
	C117.4,54.9,118.7,54.8,119.9,54.8z M131,55.5c-1.9,0-4.2,0.2-6,0.6c-0.5,0.1-0.7,0.5-0.7,0.9c0,0.1,0,0.1,0,0.2
	c0,0.5,0.4,0.8,0.9,0.8c0.1,0,0.1,0,0.2,0c1.6-0.3,3.8-0.5,5.4-0.5c0.7,0,1.5,0,2.1,0c0,0,0.1,0,0.1,0c0.5,0,0.9-0.4,0.9-0.9
	c0-0.5-0.3-1-0.9-1C132.3,55.6,131.6,55.5,131,55.5z M125.2,62.9c0.2-0.2,0.2-0.4,0.2-0.5c0-0.3-0.1-0.5-0.4-0.7
	c-0.2-0.1-0.3-0.2-0.5-0.2c-0.2,0-0.4,0.1-0.6,0.3c-0.9,0.8-1.4,2.1-1.4,3.1c0,1.5,0.5,2.5,1.9,3.2c1,0.5,2.5,0.7,4.3,0.7
	c2,0,3.9-0.2,5.3-0.5c0.6-0.1,0.9-0.5,0.9-1c0-0.1,0-0.1,0-0.2c-0.1-0.4-0.4-0.7-0.9-0.7c-0.1,0-0.2,0-0.3,0
	c-1.3,0.3-3.3,0.5-5.1,0.5c-1.4,0-2.5-0.1-3.2-0.4c-0.7-0.4-1.1-0.8-1.1-1.6C124.3,64.1,124.6,63.5,125.2,62.9z M138.3,54
	c0,0.6,0.3,0.9,0.8,0.9c0.2,0,0.3,0,0.5,0c1.1,0,2.3,0,3.5-0.1c-1.1,4.3-2.7,8.7-4.4,12.2c-0.1,0.2-0.1,0.4-0.1,0.6
	c0,0.4,0.2,0.7,0.5,0.8c0.2,0.1,0.4,0.1,0.5,0.1c0.4,0,0.7-0.2,0.9-0.6c1.8-3.8,3.4-8.7,4.6-13.3c1.9-0.1,3.7-0.4,5.2-0.6
	c0.4-0.1,0.7-0.4,0.7-0.8c0-0.1,0-0.2,0-0.2c-0.1-0.5-0.4-0.7-0.8-0.7c-0.1,0-0.2,0-0.2,0c-1.2,0.2-2.8,0.4-4.3,0.6
	c0.2-1,0.4-2,0.6-2.9c0-0.1,0-0.1,0-0.2c0-0.4-0.3-0.7-0.8-0.8c-0.1,0-0.1,0-0.2,0c-0.5,0-0.8,0.2-0.9,0.7c-0.2,1.1-0.4,2.2-0.7,3.3
	c-1.5,0.1-3.1,0.1-4.3,0.1C138.7,53,138.4,53.4,138.3,54L138.3,54z M156.3,57.5c0.5,0,0.9-0.4,0.9-0.9c0-0.5-0.3-1-0.9-1
	c-0.7,0-1.4-0.1-2-0.1c-1.9,0-4.2,0.2-6,0.6c-0.5,0.1-0.7,0.5-0.7,0.9c0,0,0,0.1,0,0.2c0.1,0.5,0.4,0.8,0.9,0.8c0,0,0.1,0,0.2,0
	c1.6-0.3,3.8-0.5,5.4-0.5C154.8,57.5,155.6,57.5,156.3,57.5L156.3,57.5z M148.5,62.9c0.2-0.2,0.2-0.4,0.2-0.5c0-0.3-0.1-0.5-0.4-0.7
	c-0.2-0.1-0.4-0.2-0.5-0.2c-0.2,0-0.4,0.1-0.6,0.3c-0.9,0.8-1.4,2.1-1.4,3.1c0,1.5,0.5,2.5,1.9,3.2c1,0.5,2.5,0.7,4.3,0.7
	c2,0,3.9-0.2,5.3-0.5c0.6-0.1,0.9-0.5,0.9-1c0-0.1,0-0.2,0-0.2c-0.1-0.4-0.4-0.7-0.9-0.7c-0.1,0-0.2,0-0.3,0
	c-1.3,0.3-3.3,0.5-5.1,0.5c-1.4,0-2.5-0.1-3.2-0.4c-0.7-0.4-1.1-0.8-1.1-1.6C147.6,64.1,147.9,63.5,148.5,62.9z M153.5,50.1
	c0,0.2,0.1,0.4,0.2,0.6c0.7,0.7,1.4,1.7,1.8,2.5c0.1,0.3,0.3,0.4,0.6,0.4c0.4,0,0.8-0.3,0.8-0.7c0-0.3-0.1-0.5-0.2-0.6
	c-0.4-0.8-1.3-1.9-2-2.6c-0.2-0.2-0.4-0.3-0.6-0.3C153.8,49.4,153.5,49.8,153.5,50.1z M156,48.5c0,0.3,0.1,0.4,0.3,0.6
	c0.6,0.7,1.2,1.6,1.8,2.5c0.2,0.3,0.3,0.4,0.6,0.4c0.4,0,0.7-0.4,0.7-0.7c0-0.3-0.1-0.4-0.1-0.6c-0.4-0.7-1.3-2-1.9-2.5
	c-0.2-0.2-0.4-0.3-0.6-0.3C156.4,47.9,156,48.2,156,48.5z M178.1,56.2c1.1-0.1,2.1-0.3,3-0.4c0.4-0.1,0.7-0.4,0.7-0.9
	c0-0.1,0-0.1,0-0.2c0-0.4-0.4-0.7-0.8-0.7c-0.1,0-0.1,0-0.2,0c-0.8,0.2-1.8,0.3-2.7,0.4c0-1.6-0.1-3.2-0.2-4.4
	c0-0.6-0.4-0.9-0.9-0.9c0,0,0,0-0.1,0c-0.6,0-0.9,0.3-0.9,0.9c0,0,0,0.1,0,0.1c0.1,1.2,0.2,2.8,0.2,4.5c-1.2,0.1-2.4,0.1-3.7,0.1
	c-1.1,0-2.7,0-3.5-0.1c0,0,0,0,0,0c-0.5,0-0.8,0.3-0.8,0.9c0,0,0,0,0,0c0,0.5,0.4,0.9,0.8,0.9c0.9,0.1,2.4,0.1,3.7,0.1
	c1.2,0,2.4,0,3.6-0.1c0,0.6,0,1.2,0,1.8c0,3.2-0.5,5.3-1.3,6.5c-0.8,1.3-2.4,2.3-3.9,2.8c-0.4,0.1-0.6,0.4-0.6,0.8
	c0,0.1,0,0.3,0.1,0.5c0.1,0.4,0.4,0.6,0.8,0.6c0.1,0,0.3,0,0.4-0.1c1.9-0.6,3.7-1.9,4.7-3.6c1-1.6,1.6-4,1.6-7.4
	C178.1,57.6,178.1,56.9,178.1,56.2z M165.6,49.4c-0.1,0-0.1,0-0.2,0c-0.5,0-1,0.3-1.1,0.8c-0.7,3.4-1.1,6.7-1.1,9.4
	c0,2.8,0.3,5.7,0.9,8.1c0.2,0.5,0.6,0.8,1,0.8c0.1,0,0.2,0,0.3,0c0.4-0.1,0.7-0.4,0.7-0.8c0-0.1,0-0.3-0.1-0.4
	c-0.6-2.4-0.9-5.1-0.9-7.6c0-2.6,0.4-5.8,1.1-9c0-0.1,0-0.2,0-0.3C166.4,49.8,166.1,49.5,165.6,49.4z M196.1,52.5
	c4.1,0.1,6.7,3,6.7,7c0,2.5-1.1,4.3-2.5,5.4c-1.2,0.9-3,1.4-4.7,1.7c-0.5,0.1-0.8,0.4-0.8,0.9c0,0.1,0,0.2,0,0.2
	c0.1,0.6,0.5,0.8,1,0.8c0.1,0,0.2,0,0.3,0c1.9-0.3,3.5-0.8,4.9-1.7c2.4-1.5,3.9-4,3.9-7.3c0-5.1-3.6-8.7-9.2-8.7
	c-6.4,0-10.4,4.2-10.4,10c0,3.9,1.9,6.3,4.4,6.3c1,0,1.9-0.3,2.7-1c0.8-0.8,1.5-1.8,2.3-4.2C195.4,59.3,195.9,56,196.1,52.5z
	 M194.2,52.5c-0.2,3.2-0.7,6.4-1.5,8.6c-0.6,1.7-1.1,2.7-1.6,3.2c-0.5,0.5-1,0.7-1.6,0.7c-1.2,0-2.4-1.5-2.4-4.3
	C187.1,56.2,189.9,52.9,194.2,52.5z M214.7,54.9c0.3-0.3,0.4-0.6,0.4-0.9c0-0.4-0.3-0.8-0.9-0.8c0-1.1,0.1-2.2,0.2-3.3c0,0,0,0,0,0
	c0-0.5-0.4-0.8-0.9-0.8c-0.6,0-0.9,0.3-1,0.8c-0.1,1.2-0.1,2.4-0.1,3.5c-1.1,0.1-2.3,0.2-3.5,0.3c-0.5,0-0.8,0.4-0.8,0.9
	c0,0,0,0,0,0.1c0,0.5,0.3,0.8,0.8,0.8c0,0,0.1,0,0.1,0c1.1-0.1,2.2-0.3,3.3-0.3c0,1.1-0.1,2.5-0.1,3.6c-1.6,1.6-3.1,3.5-4.1,4.9
	c-0.2,0.2-0.2,0.5-0.2,0.7c0,0.3,0.1,0.6,0.3,0.7c0.2,0.2,0.4,0.2,0.6,0.2c0.3,0,0.5-0.1,0.7-0.4c0.7-1,1.4-2,1.8-2.5
	c0.3-0.4,0.7-0.9,0.9-1.4c-0.1,0.8-0.1,1.6-0.1,2c0,0.7,0,1.6,0,2.6c0,1,0,2.1,0,3.2c0,0.5,0.4,0.9,0.9,0.9c0.6,0,1-0.4,1-0.9
	c0-2.3-0.1-4.4-0.1-6.6c0-0.9,0-1.8,0-2.7c0.7-0.7,1.4-1.3,2.1-1.8c1.8-1.4,3.6-2.2,5.6-2.2c2.6,0,4.5,1.9,4.5,4.6
	c0,2.4-0.8,3.9-2.4,4.9c-1.3,0.7-3.4,1.2-5.2,1.2c-0.6,0-1,0.4-1,1c0,0.6,0.3,1,1,1c2.2,0,4.5-0.5,6.1-1.4c2.4-1.4,3.5-3.6,3.5-6.6
	c0-3.7-2.5-6.5-6.4-6.5c-2.2,0-4.2,0.8-6.2,2.3c-0.3,0.2-0.5,0.4-0.9,0.7c-0.3,0.3-0.5,0.5-0.7,0.7c0-0.4,0-0.7,0.1-1.1
	c0-0.2,0-0.3,0-0.5c0-0.1,0-0.3,0-0.4L214.7,54.9z M236.2,60.7c0.3-0.6,0.7-1.4,1-2.1c1-2.5,2.1-5.2,3.2-8.1
	c0.1-0.2,0.1-0.4,0.1-0.5c0-0.4-0.2-0.7-0.6-0.8c-0.1,0-0.3-0.1-0.4-0.1c-0.4,0-0.7,0.2-0.9,0.7c-2.2,5.5-4.6,11.8-6.6,17.7
	c-0.1,0.2-0.1,0.3-0.1,0.5c0,0.4,0.3,0.8,0.7,0.9c0.1,0,0.3,0.1,0.4,0.1c0.4,0,0.7-0.2,0.9-0.7c0.7-2.1,1.8-4.4,2.7-5.8
	c1.2-1.8,2.8-2.9,4.2-2.9c0.7,0,1.1,0.3,1.3,0.8c0.3,0.7,0.4,1.5,0.4,3.3c0.1,2.3,0.4,3.4,1,4.1c0.6,0.7,1.6,1.1,2.8,1.1
	c1.4,0,2.7-0.5,3.6-1.7c1-1.2,1.7-2.9,2-5.1c0-0.1,0-0.2,0-0.2c0-0.5-0.3-0.9-0.8-1c-0.1,0-0.2,0-0.2,0c-0.5,0-0.8,0.3-0.9,0.8
	c-0.3,1.7-0.8,3.1-1.4,4.1c-0.5,0.7-1.3,1.1-2.1,1.1c-0.6,0-1.2-0.2-1.5-0.6c-0.3-0.4-0.5-1.2-0.5-3.3c-0.1-2.3-0.3-3.2-0.7-3.9
	c-0.4-0.7-1.1-1.3-2.3-1.3c-1.8,0-3.5,1.1-4.9,3.1L236.2,60.7z M259.9,60.8c1.1-1.8,2.1-3.8,3-6.1c3.3-0.1,6.8-0.4,9.2-0.7
	c0.5-0.1,0.8-0.4,0.8-0.9c0,0,0-0.1,0-0.2c-0.1-0.5-0.4-0.7-0.9-0.7c-0.1,0-0.1,0-0.2,0c-2.3,0.3-5.4,0.6-8.3,0.7
	c0.3-0.8,0.6-1.8,0.8-2.7c0-0.1,0-0.2,0-0.4c0-0.4-0.3-0.7-0.7-0.8c-0.1,0-0.2,0-0.2,0c-0.5,0-0.8,0.2-0.9,0.8
	c-0.3,1.1-0.6,2.1-0.9,3.1c-1.9,0-3.6,0-5-0.1c0,0-0.1,0-0.1,0c-0.5,0-0.8,0.4-0.8,0.9c0,0,0,0,0,0.1c0,0.5,0.3,0.9,0.8,0.9
	c1,0.1,2.2,0.1,3.4,0.1c0.4,0,0.7,0,1.1,0c-1,2.4-2.1,4.7-3.5,7c-0.2,0.3-0.2,0.5-0.2,0.7c0,0.4,0.2,0.7,0.5,0.8
	c0.2,0.1,0.3,0.1,0.5,0.1c0.3,0,0.7-0.2,1.2-0.5c2-1.6,5-2.7,7.6-2.7c3.1,0,4.7,1,4.7,2.9c0,2.5-2.6,3.7-6.4,3.7
	c-2,0-4.1-0.3-5.3-0.7c-0.1,0-0.3-0.1-0.4-0.1c-0.4,0-0.7,0.3-0.9,0.7c0,0.1-0.1,0.2-0.1,0.4c0,0.4,0.3,0.8,0.7,0.9
	c1.4,0.4,3.5,0.7,5.9,0.7c5.9,0,8.4-2.5,8.4-5.7c0-2.7-2.1-4.6-6.5-4.6c-2.8,0-5.4,1-7.3,2.3L259.9,60.8z M289.1,56.2
	c-1.1,0.2-2.6,0.7-3.8,1.1c-0.3-0.8-0.6-1.8-0.9-2.7c-0.1-0.4-0.4-0.6-0.8-0.6c-0.1,0-0.2,0-0.4,0c-0.4,0.1-0.6,0.4-0.6,0.8
	c0,0.1,0,0.2,0,0.3c0.4,0.9,0.7,1.9,1,2.8c-1,0.4-2,0.7-2.9,1.2c-0.4,0.2-0.5,0.5-0.5,0.8c0,0.1,0,0.3,0.1,0.4
	c0.2,0.3,0.4,0.5,0.7,0.5c0.1,0,0.3,0,0.4-0.1c0.8-0.4,1.8-0.8,2.7-1.2c0.9,3,1.7,6.3,2.4,9.4c0.1,0.5,0.4,0.7,0.8,0.7
	c0.1,0,0.2,0,0.3,0c0.4-0.1,0.7-0.4,0.7-0.9c0-0.1,0-0.1,0-0.2c-0.7-3.2-1.7-6.6-2.5-9.6c0.6-0.3,1.4-0.5,2.2-0.7
	c1.2-0.4,2.5-0.6,3.8-0.6c1.9,0,3,1.1,3,2.6c0,1.6-1.1,2.6-3,2.6c-0.7,0-1.6-0.2-2.2-0.6c-0.1-0.1-0.3-0.1-0.4-0.1
	c-0.3,0-0.6,0.2-0.8,0.5c0,0.1-0.1,0.2-0.1,0.4c0,0.4,0.2,0.7,0.6,0.9c0.8,0.4,2,0.7,3,0.7c2.8,0,4.6-1.9,4.6-4.4
	c0-2.5-1.7-4.3-4.7-4.3c-0.4,0-0.7,0-1,0l-0.1-2.1c0-0.5-0.4-0.8-0.9-0.8c0,0,0,0-0.1,0c-0.4,0-0.8,0.3-0.8,0.8c0,0,0,0,0,0.1
	L289.1,56.2z M306.2,60.7c0.3-0.6,0.7-1.4,1-2.1c1-2.5,2.1-5.2,3.2-8.1c0.1-0.2,0.1-0.4,0.1-0.5c0-0.4-0.2-0.7-0.6-0.8
	c-0.1,0-0.3-0.1-0.4-0.1c-0.4,0-0.7,0.2-0.9,0.7c-2.2,5.5-4.6,11.8-6.6,17.7c-0.1,0.2-0.1,0.3-0.1,0.5c0,0.4,0.3,0.8,0.7,0.9
	c0.1,0,0.3,0.1,0.4,0.1c0.4,0,0.7-0.2,0.9-0.7c0.7-2.1,1.8-4.4,2.7-5.8c1.2-1.8,2.8-2.9,4.2-2.9c0.7,0,1.1,0.3,1.3,0.8
	c0.3,0.7,0.4,1.5,0.4,3.3c0.1,2.3,0.4,3.4,1,4.1c0.6,0.7,1.6,1.1,2.8,1.1c1.4,0,2.7-0.5,3.6-1.7c1-1.2,1.7-2.9,2-5.1
	c0-0.1,0-0.2,0-0.2c0-0.5-0.3-0.9-0.8-1c-0.1,0-0.2,0-0.2,0c-0.5,0-0.8,0.3-0.9,0.8c-0.3,1.7-0.8,3.1-1.4,4.1
	c-0.5,0.7-1.3,1.1-2.1,1.1c-0.6,0-1.2-0.2-1.5-0.6c-0.3-0.4-0.5-1.2-0.5-3.3c-0.1-2.3-0.3-3.2-0.7-3.9c-0.4-0.7-1.1-1.3-2.3-1.3
	c-1.8,0-3.5,1.1-4.9,3.1L306.2,60.7z M330,57.8c1.2-1.1,2.3-2.5,3.2-4c2.7-0.1,5.6-0.3,8.5-0.7c0.5-0.1,0.8-0.4,0.8-0.9
	c0-0.1,0-0.1,0-0.2c-0.1-0.5-0.4-0.7-0.8-0.7c-0.1,0-0.1,0-0.2,0c-2.6,0.4-5.3,0.7-7.3,0.7c0.4-0.7,0.7-1.3,0.9-2
	c0.1-0.1,0.1-0.3,0.1-0.4c0-0.4-0.3-0.6-0.7-0.7c-0.1,0-0.2,0-0.3,0c-0.4,0-0.7,0.2-0.9,0.7c-0.3,0.8-0.7,1.7-1.2,2.5
	c-0.4,0-0.9,0-1.3,0c-1.5,0-3,0-4.1-0.1c0,0,0,0-0.1,0c-0.5,0-0.8,0.4-0.8,0.9c0,0,0,0.1,0,0.1c0,0.5,0.3,0.8,0.8,0.9
	c1.1,0,2.4,0.1,3.5,0.1c0.4,0,0.7,0,1.1,0c-1.5,2.4-3.5,4.8-5.5,6.7c-0.2,0.2-0.3,0.5-0.3,0.7c0,0.3,0.1,0.5,0.3,0.7
	c0.2,0.2,0.4,0.3,0.6,0.3c0.3,0,0.5-0.1,0.7-0.4c2.8-2.8,5.4-4.4,7.4-4.4c1,0,1.7,0.4,1.9,1.8c-4.3,1.6-6.5,3.7-6.5,6
	c0,2.7,2.5,3.9,6.9,3.9c2.5,0,4.8-0.2,6.5-0.5c0.5-0.1,0.9-0.5,0.9-1c0-0.1,0-0.1,0-0.2c-0.1-0.5-0.4-0.7-0.9-0.7
	c-0.1,0-0.2,0-0.3,0c-1.7,0.3-4.1,0.5-6.3,0.5c-3.3,0-4.8-0.7-4.8-2.1c0-1.4,1.4-2.8,4.7-4.1c0,0.4,0,0.7,0,1.1c0,0.7,0,1.5,0,2.1
	c0,0.6,0.3,0.9,0.9,0.9c0.5,0,0.9-0.3,0.9-0.9c0-0.4,0-0.9,0-1.3c0-0.8,0-1.7-0.1-2.5c2.2-0.8,4.4-1.4,6.1-1.8
	c0.5-0.1,0.7-0.4,0.7-0.9c0-0.1,0-0.2,0-0.4c-0.1-0.4-0.4-0.6-0.9-0.6c-0.1,0-0.3,0-0.4,0c-1.6,0.5-3.6,1.1-5.7,1.8
	c-0.3-2-1.5-2.7-3.2-2.7c-1.4,0-2.8,0.6-4.6,1.9L330,57.8z M359.7,53.5v15.9c0,0.4,0.3,0.7,0.9,0.7c0.5,0,0.9-0.2,0.9-0.7v-5.3h6.4
	c0.4,0,0.6-0.4,0.6-0.8c0-0.5-0.2-0.8-0.6-0.8h-6.4v-3.6h6.4c0.4,0,0.7-0.4,0.7-0.8c0-0.4-0.2-0.8-0.7-0.8h-6.4v-3.6h7.1
	c0.4,0,0.7-0.3,0.7-0.8c0-0.5-0.2-0.8-0.7-0.8h-8.9c0.3-0.8,0.6-1.6,0.9-2.4c0-0.1,0-0.2,0-0.3c0-0.4-0.2-0.6-0.7-0.7
	c-0.1,0-0.2,0-0.3,0c-0.4,0-0.7,0.2-0.8,0.6c-0.8,3-2.5,6.3-4.4,8.5c-0.1,0.2-0.2,0.4-0.2,0.6c0,0.3,0.1,0.5,0.3,0.7
	c0.2,0.2,0.4,0.2,0.6,0.2c0.3,0,0.5-0.1,0.7-0.4c1.2-1.4,2.3-3.2,3.2-5.1H359.7z M351.1,69.3c0,0.4,0.4,0.7,0.9,0.7
	c0.6,0,0.9-0.2,0.9-0.7V54.1c0.8-1.5,1.5-3,2-4.6c0-0.1,0.1-0.2,0.1-0.3c0-0.4-0.3-0.6-0.7-0.7c-0.1,0-0.2,0-0.4,0
	c-0.4,0-0.7,0.2-0.8,0.6c-1,3.5-3,6.7-5.3,9c-0.2,0.2-0.3,0.4-0.3,0.6c0,0.3,0.1,0.5,0.3,0.7c0.2,0.2,0.4,0.3,0.7,0.3
	c0.2,0,0.4-0.1,0.6-0.3c0.8-0.8,1.5-1.8,2.2-2.9c-0.2,1.1-0.2,2.1-0.2,3.1V69.3z M379.1,58.7c0.9-0.5,1.7-1,2.4-1.6
	c1.9-1.4,3.9-3,5.7-4.8c0.3-0.3,0.5-0.7,0.5-1.1c0-0.2,0-0.4-0.1-0.6c-0.3-0.4-0.6-0.6-1.3-0.6c0,0-0.1,0-0.2,0
	c-1.5,0.1-3.2,0.2-5,0.2c-1.7,0-3.5,0-5.1,0c0,0,0,0,0,0c-0.5,0-0.9,0.4-0.9,1c0,0.5,0.4,0.9,0.9,0.9c0.3,0,0.5,0,0.8,0
	c2.8,0,5.9-0.1,8.1-0.3c-3.2,3-7.9,6.6-11.9,9.2c-0.3,0.2-0.5,0.5-0.5,0.8c0,0.2,0,0.4,0.2,0.5c0.2,0.3,0.5,0.4,0.8,0.4
	c0.2,0,0.4-0.1,0.7-0.2c1.5-1,3-1.8,4.4-2.4c1.9-0.8,3.7-1.2,5.6-1.2c3,0,4.7,1.3,4.7,3.5c0,2.4-2.6,4.2-7.1,4.2
	c-1.6,0-3.4-0.3-4.6-0.6c-0.1,0-0.2,0-0.3,0c-0.5,0-0.8,0.3-0.9,0.7c0,0.1,0,0.2,0,0.3c0,0.4,0.3,0.8,0.8,1c1.4,0.4,3.4,0.6,5.2,0.6
	c5.7,0,9-2.3,9-6c0-3.1-2.3-5.2-6.4-5.2c-1.7,0-3.7,0.4-5.4,1.3L379.1,58.7z M399.9,51.3c2.8,0.6,7.1,1.2,10.2,1.2c0,0,0,0,0.1,0
	c0.6,0,1-0.3,1-0.9c0,0,0,0,0,0c0-0.6-0.4-1-1-1c-3.1-0.1-7-0.6-9.9-1.2c-0.1,0-0.1,0-0.2,0c-0.5,0-0.9,0.3-1,0.8c0,0.1,0,0.2,0,0.3
	C399.2,50.9,399.4,51.2,399.9,51.3z M413,60.1c0-2.9-2.2-5-6.6-5c-2.7,0-6.4,0.7-9,1.5c-0.4,0.1-0.7,0.5-0.7,1c0,0.1,0,0.2,0,0.4
	c0.2,0.5,0.5,0.7,0.9,0.7c0.1,0,0.2,0,0.4,0c2.6-0.8,6-1.5,8.5-1.5c3.3,0,4.6,1.3,4.6,3.2c0,2-1.1,3.8-3.3,5.1
	c-1.6,0.9-4.1,1.6-6.2,1.9c-0.5,0.1-0.8,0.5-0.8,1c0,0.1,0,0.2,0,0.2c0.1,0.5,0.4,0.8,1,0.8c0.1,0,0.1,0,0.2,0
	c2.2-0.3,4.9-1.1,6.7-2.1C411.6,65.5,413,63.1,413,60.1z M427.6,63c0,0.5,0.4,0.8,0.9,0.8c0.5,0,0.9-0.3,0.9-0.8l0.3-12
	c0-0.7-0.5-1.1-1.2-1.1c-0.8,0-1.3,0.4-1.3,1.1L427.6,63z M428.5,65.3c-0.9,0-1.6,0.6-1.6,1.6c0,1,0.7,1.6,1.6,1.6
	c0.9,0,1.6-0.6,1.6-1.6C430.1,65.9,429.4,65.3,428.5,65.3z"/>
</svg>
