<?xml version="1.0" encoding="utf-8"?>
<!-- Generator: Adobe Illustrator 26.4.1, SVG Export Plug-In . SVG Version: 6.00 Build 0)  -->
<svg version="1.1" id="レイヤー_1" xmlns="http://www.w3.org/2000/svg" xmlns:xlink="http://www.w3.org/1999/xlink" x="0px"
	 y="0px" viewBox="0 0 1548.8 833" style="enable-background:new 0 0 1548.8 833;" xml:space="preserve">
<style type="text/css">
	.st0{fill:#3E80A1;}
	.st1{fill:#314862;}
</style>
<path class="st0" d="M0,770.1v-611h1548.8v611c-54,94.3-85,66.5-108.8,0s-66.8-85.5-98.5,0s-80.5,59.5-103.5,0s-71.1-81-104,0
	s-83.3,78-116,0c-32.7-78-91-86.5-126,0s-72.5,81-116.5,0c-39.1-72-73.7-71-110.5,0c-40.5,78.1-76.5,81.5-117.5,0s-88.5-68-117,0
	s-76.9,70.5-110,0s-64-66-102.5,0s-76.5,61.5-110.5,0S42,699.5,0,770.1z"/>
<path class="st1" d="M0,611.1V0.1h1548.8v611c-45.3,99.8-96.9,38.5-108.8,0c-16.6-53.8-66.6-75.1-98.5,0
	c-35.7,83.9-80.5,59.5-103.5,0s-75-71.5-104,0s-88.5,65.5-116,0c-27.5-65.5-91-86.5-126,0s-72.5,81-116.5,0
	c-39.1-72-73.7-71-110.5,0c-40.5,78.1-76.5,81.5-117.5,0s-90-54.2-120.5,0s-76.2,64.5-106.5,0s-64-66-102.5,0s-76.5,61.5-110.5,0
	S42,540.5,0,611.1z"/>
</svg>
